# AST/ASF file generated using VICON BodyLanguage
# -----------------------------------------------
:version 1.10
:name VICON
:units
  mass 1.0
  length 0.45
  angle deg
:documentation
   .ast/.asf automatically generated from VICON data using
   VICON BodyBuilder and BodyLanguage model FoxedUp or BRILLIANT.MOD
:root
   order TX TY TZ RX RY RZ
   axis XYZ
   position 0 0 0  
   orientation 0 0 0 
:bonedata
  begin
     id 1 
     name lhipjoint
     direction 0.621036 -0.695554 0.361275 
     length 2.46325 
     axis 0 0 0  XYZ
  end
  begin
     id 2 
     name lfemur
     direction 0.34202 -0.939693 0  
     length 6.54784  
     axis 0 0 20  XYZ
    dof rx ry rz
    limits (-160.0 20.0)
           (-70.0 70.0)
           (-60.0 70.0)
  end
  begin
     id 3 
     name ltibia
     direction 0.34202 -0.939693 0   
     length 7.84737   
     axis 0 0 20   XYZ
    dof rx
    limits (-10.0 170.0)
  end
  begin
     id 4 
     name lfoot
     direction 0.0790693 -0.217241 0.97291   
     length 2.59747   
     axis -90 7.62852e-016 20   XYZ
    dof rx rz
    limits (-45.0 90.0)
           (-70.0 20.0)
  end
  begin
     id 5 
     name ltoes
     direction 1.53572e-011 -4.21898e-011 1   
     length 1.29919   
     axis -90 7.62852e-016 20   XYZ
    dof rx
    limits (-90.0 20.0)
  end
  begin
     id 6 
     name rhipjoint
     direction -0.602353 -0.708375 0.367935   
     length 2.41867  
     axis 0 0 0  XYZ 
  end
  begin
     id 7 
     name rfemur
     direction -0.34202 -0.939693 0   
     length 6.92065   
     axis 0 0 -20   XYZ
    dof rx ry rz
    limits (-160.0 20.0)
           (-70.0 70.0)
           (-70.0 60.0)
  end
  begin
     id 8 
     name rtibia
     direction -0.34202 -0.939693 0   
     length 7.88883   
     axis 0 0 -20   XYZ
    dof rx
    limits (-10.0 170.0)
 end
 begin
     id 9 
     name rfoot
     direction -0.0768692 -0.211196 0.974416   
     length 2.43714  
     axis -90 -7.62852e-016 -20   XYZ
    dof rx rz
    limits (-45.0 90.0)
           (-20.0 70.0)
  end
  begin
     id 10 
     name rtoes
     direction -1.53575e-011 -4.21933e-011 1   
     length 1.22113   
     axis -90 -7.62852e-016 -20   XYZ
    dof rx
    limits (-90.0 20.0)
  end
  begin
     id 11 
     name lowerback
     direction 0.0197937 0.98943 -0.143655   
     length 2.16931   
     axis 0 0 0   XYZ
    dof rx ry rz
    limits (-20.0 45.0)
           (-30.0 30.0)
           (-30.0 30.0)
  end
  begin
     id 12 
     name upperback
     direction -0.00183968 0.999975 0.00684288   
     length 2.17221   
     axis 0 0 0   XYZ
    dof rx ry rz
    limits (-20.0 45.0)
           (-30.0 30.0)
           (-30.0 30.0)
  end
  begin
     id 13 
     name thorax
     direction -0.00950244 0.997208 0.0740685   
     length 2.22549   
     axis 0 0 0   XYZ
    dof rx ry rz
    limits (-20.0 45.0)
           (-30.0 30.0)
           (-30.0 30.0)
  end
  begin
     id 14 
     name lowerneck
     direction 0.0218238 0.996215 0.0841425   
     length 1.77269   
     axis 0 0 0   XYZ
    dof rx ry rz
    limits (-20.0 45.0)
           (-30.0 30.0)
           (-30.0 30.0)
  end
  begin
     id 15 
     name upperneck
     direction -0.00430652 0.994214 -0.107332   
     length 1.76534   
     axis 0 0 0   XYZ
    dof rx ry rz
    limits (-20.0 45.0)
           (-30.0 30.0)
           (-30.0 30.0)
  end
  begin
     id 16
     name head
     direction -0.00328946 0.998959 -0.0454998  
     length 1.82634  
     axis 0 0 0   XYZ
    dof rx ry rz
    limits (-20.0 45.0)
           (-30.0 30.0)
           (-30.0 30.0)
  end
  begin
     id 17 
     name lclavicle
     direction 0.970962 0.239191 0.00450212  
     length 3.84872  
     axis 0 0 0   XYZ
    dof ry rz
    limits (-20.0 10.0)
           (0.0 20.0)
  end
  begin
     id 18 
     name lhumerus
     direction 1 -4.48966e-011 5.74696e-028   
     length 5.22771   
     axis 180 -30 -90   XYZ
    dof rx ry rz
    limits (-60.0 90.0)
           (-90.0 90.0)
           (-90.0 90.0)
  end
  begin
     id 19
     name lradius
     direction 1 -4.4896e-011 4.25109e-027   
     length 3.45251   
     axis 180 -30 -90   XYZ
    dof rx
    limits (-10.0 170.0)
  end
  begin
     id 20
     name lwrist
     direction 1 -4.48971e-011 1.15382e-027   
     length 1.72626   
     axis -5.52449e-016 90 90   XYZ
    dof ry
    limits (-180.0 0.0)
 end
  begin
     id 21 
     name lhand
     direction 1 -4.49034e-011 2.30765e-027   
     length 0.552119   
     axis -1.47248e-015 90 90   XYZ
    dof rx rz
    limits (-90.0 90.0)
           (-45.0 45.0)
  end
  begin
     id 22 
     name lfingers
     direction 1 -4.48951e-011 4.61529e-027   
     length 0.445133   
     axis -2.94495e-015 90 90   XYZ
    dof rx
    limits (0.0 90.0)
  end
  begin
     id 23
     name lthumb
     direction 0.707107 -6.34991e-011 0.707107   
     length 0.639124   
     axis -90 45 2.85299e-015   XYZ
    dof rx rz
    limits (-45.0 45.0)
           (-45.0 45.0)
  end
  begin
     id 24 
     name rclavicle
     direction -0.97424 0.222511 -0.0366699   
     length 3.73439  
     axis 0 0 0   XYZ 
    dof ry rz
    limits (-10.0 20.0)
           (-20.0 0.0)
  end
  begin
     id 25 
     name rhumerus
     direction -1 -4.48956e-011 -4.97258e-028  
     length 5.2398   
     axis 180 30 90   XYZ
    dof rx ry rz
    limits (-90.0 60.0)
           (-90.0 90.0)
           (-90.0 90.0)
  end
  begin
     id 26 
     name rradius
     direction -1 -4.4897e-011 -1.72611e-027   
     length 3.48042   
     axis 180 30 90   XYZ
    dof rx
    limits (-10.0 170.0)
  end
  begin
     id 27 
     name rwrist
     direction -1 -4.48976e-011 1.15382e-027   
     length 1.74021   
     axis -5.52449e-016 -90 -90   XYZ
    dof ry
    limits (-180.0 0.0)
  end
  begin
     id 28
     name rhand
     direction -1 -4.48963e-011 2.30765e-027   
     length 0.618713   
     axis -1.47248e-015 -90 -90   XYZ
    dof rx rz
    limits (-90.0 90.0)
           (-45.0 45.0)
  end
  begin
     id 29
     name rfingers
     direction -1 -4.4888e-011 4.61529e-027   
     length 0.498823   
     axis -2.94495e-015 -90 -90   XYZ
    dof rx
    limits (0.0 90.0)
  end
  begin
     id 30
     name rthumb
     direction -0.707107 -6.34968e-011 0.707107   
     length 0.716213   
     axis -90 -45 -2.85299e-015   XYZ
    dof rx rz
    limits (-45.0 45.0)
           (-45.0 45.0)
  end
:hierarchy
  begin
    root lhipjoint rhipjoint lowerback
    lhipjoint lfemur
    lfemur ltibia
    ltibia lfoot
    lfoot ltoes
    rhipjoint rfemur
    rfemur rtibia
    rtibia rfoot
    rfoot rtoes
    lowerback upperback
    upperback thorax
    thorax lowerneck lclavicle rclavicle
    lowerneck upperneck
    upperneck head
    lclavicle lhumerus
    lhumerus lradius
    lradius lwrist
    lwrist lhand lthumb
    lhand lfingers
    rclavicle rhumerus
    rhumerus rradius
    rradius rwrist
    rwrist rhand rthumb
    rhand rfingers
  end

#!OML:ASF G:\JayActor3\Patient Classification 1\Patient 1\Session 5\male.ASF
:FULLY-SPECIFIED
:DEGREES
238
root -26.3113 16.4913 -7.17084 306.4 -87.4187 -283.041
lowerback 29.8833 -0.381905 1.09507
upperback 5.55026 -0.688449 -0.439521
thorax -10.2228 -0.554942 -0.839647
lowerneck 4.32495 0.328224 2.33581
upperneck -18.8465 0.292129 -0.428515
head -6.42337 -0.15219 -0.5287
rclavicle 2.56432e-014 4.85035e-014
rhumerus -28.2342 4.13265 -88.903
rradius 38.3939
rwrist -5.98976
rhand -20.6868 -7.44579
rfingers 7.12502
rthumb 5.67673 -37.3497
lclavicle 2.56432e-014 4.85035e-014
lhumerus -31.1223 -4.87756 86.9036
lradius 36.6137
lwrist 25.522
lhand -19.7689 9.55072
lfingers 7.12502
lthumb 6.56295 39.429
rfemur -58.68 -2.19189 27.1283
rtibia 49.8703
rfoot -15.6799 -11.783
rtoes 9.28285
lfemur -59.1275 7.44883 -21.8367
ltibia 84.0356
lfoot -3.20936 -2.98377
ltoes -15.3587
239
root -26.2388 16.4958 -7.16878 304.443 -87.4755 -281.032
lowerback 29.741 -0.364836 1.07819
upperback 5.53001 -0.670549 -0.444701
thorax -10.1751 -0.544919 -0.843421
lowerneck 4.31099 0.343881 2.33981
upperneck -18.8048 0.318599 -0.407186
head -6.40737 -0.140352 -0.524318
rclavicle 1.19271e-015 -1.78906e-014
rhumerus -28.2591 4.1371 -88.9572
rradius 38.3736
rwrist -5.98818
rhand -20.684 -7.43448
rfingers 7.12502
rthumb 5.67943 -37.3384
lclavicle 1.19271e-015 -1.78906e-014
lhumerus -31.1419 -4.92286 86.9154
lradius 36.5657
lwrist 25.5066
lhand -19.7633 9.56009
lfingers 7.12502
lthumb 6.56832 39.4382
rfemur -58.8543 -2.24508 27.2005
rtibia 49.5576
rfoot -15.2509 -11.6365
rtoes 9.3233
lfemur -58.1511 7.49323 -21.8809
ltibia 83.6781
lfoot -3.18738 -3.41142
ltoes -15.3983
240
root -26.1656 16.4992 -7.16603 302.542 -87.5259 -279.082
lowerback 29.5954 -0.352719 1.06567
upperback 5.51004 -0.657515 -0.449922
thorax -10.1256 -0.537222 -0.847921
lowerneck 4.30141 0.360213 2.34306
upperneck -18.7569 0.345802 -0.389061
head -6.3901 -0.127597 -0.520889
rclavicle 5.76476e-015 1.2921e-014
rhumerus -28.2814 4.14574 -89.0132
rradius 38.3447
rwrist -5.99524
rhand -20.6787 -7.43551
rfingers 7.12502
rthumb 5.6846 -37.3393
lclavicle 5.76476e-015 1.2921e-014
lhumerus -31.1578 -4.97939 86.9302
lradius 36.5069
lwrist 25.4992
lhand -19.7494 9.5737
lfingers 7.12502
lthumb 6.58178 39.4514
rfemur -59.038 -2.28659 27.2597
rtibia 49.2646
rfoot -14.8312 -11.5034
rtoes 9.41138
lfemur -57.1733 7.53072 -21.9421
ltibia 83.2282
lfoot -3.057 -3.85614
ltoes -15.259
241
root -26.0912 16.5017 -7.1622 300.873 -87.5716 -277.371
lowerback 29.4538 -0.350455 1.06849
upperback 5.49082 -0.652331 -0.454966
thorax -10.0773 -0.533619 -0.858121
lowerneck 4.29871 0.376928 2.34609
upperneck -18.7115 0.371806 -0.382085
head -6.37482 -0.1145 -0.520911
rclavicle 2.127e-014 3.85642e-014
rhumerus -28.3024 4.14356 -89.0689
rradius 38.3181
rwrist -5.99353
rhand -20.6742 -7.44006
rfingers 7.12502
rthumb 5.68889 -37.3437
lclavicle 2.127e-014 3.85642e-014
lhumerus -31.1683 -5.04502 86.9472
lradius 36.4423
lwrist 25.4952
lhand -19.7291 9.59414
lfingers 7.12502
lthumb 6.60135 39.4713
rfemur -59.2285 -2.32104 27.3075
rtibia 48.9905
rfoot -14.4123 -11.3868
rtoes 9.51236
lfemur -56.1937 7.55328 -22.0131
ltibia 82.6874
lfoot -2.83598 -4.30692
ltoes -14.9207
242
root -26.0164 16.5034 -7.15758 299.451 -87.6118 -275.913
lowerback 29.3141 -0.3558 1.08111
upperback 5.4734 -0.653702 -0.457764
thorax -10.028 -0.533321 -0.869016
lowerneck 4.29376 0.393004 2.34615
upperneck -18.6635 0.394667 -0.385789
head -6.35834 -0.101834 -0.523618
rclavicle -1.74931e-014 -3.37934e-014
rhumerus -28.3232 4.14088 -89.1218
rradius 38.2951
rwrist -5.99434
rhand -20.6659 -7.44434
rfingers 7.12502
rthumb 5.69693 -37.3478
lclavicle -1.74931e-014 -3.37934e-014
lhumerus -31.1752 -5.11639 86.9691
lradius 36.3776
lwrist 25.486
lhand -19.7032 9.61382
lfingers 7.12502
lthumb 6.62633 39.4901
rfemur -59.4234 -2.34385 27.336
rtibia 48.7361
rfoot -13.9859 -11.2416
rtoes 9.62533
lfemur -55.2073 7.5624 -22.0939
ltibia 82.0542
lfoot -2.58644 -4.74747
ltoes -14.511
243
root -25.9406 16.5038 -7.15209 298.151 -87.6508 -274.587
lowerback 29.1834 -0.367459 1.09918
upperback 5.45673 -0.661395 -0.458693
thorax -9.98237 -0.536153 -0.878566
lowerneck 4.28958 0.409108 2.34197
upperneck -18.6161 0.415445 -0.398872
head -6.34216 -0.0891646 -0.528455
rclavicle 7.35503e-015 1.51076e-014
rhumerus -28.3447 4.14535 -89.1749
rradius 38.2782
rwrist -5.99112
rhand -20.6562 -7.45012
rfingers 7.12502
rthumb 5.70629 -37.3533
lclavicle 7.35503e-015 1.51076e-014
lhumerus -31.1803 -5.17918 86.9897
lradius 36.3183
lwrist 25.4632
lhand -19.6695 9.63321
lfingers 7.12502
lthumb 6.65884 39.5085
rfemur -59.6199 -2.34621 27.3453
rtibia 48.4999
rfoot -13.5474 -11.0775
rtoes 9.73649
lfemur -54.2196 7.56496 -22.1825
ltibia 81.3361
lfoot -2.33439 -5.15034
ltoes -14.01
244
root -25.8643 16.503 -7.1459 296.878 -87.6853 -273.295
lowerback 29.0539 -0.381008 1.115
upperback 5.44399 -0.672237 -0.457047
thorax -9.9328 -0.540423 -0.882775
lowerneck 4.27688 0.425061 2.33438
upperneck -18.5644 0.43499 -0.413793
head -6.32316 -0.0767206 -0.53319
rclavicle -8.15017e-015 8.74653e-015
rhumerus -28.3649 4.15588 -89.2231
rradius 38.2728
rwrist -5.98864
rhand -20.6521 -7.44578
rfingers 7.12502
rthumb 5.71023 -37.3488
lclavicle -8.15017e-015 8.74653e-015
lhumerus -31.1816 -5.22937 87.0128
lradius 36.2673
lwrist 25.4227
lhand -19.6328 9.64713
lfingers 7.12502
lthumb 6.69434 39.5213
rfemur -59.8216 -2.32781 27.3331
rtibia 48.2821
rfoot -13.0695 -10.9176
rtoes 9.68805
lfemur -53.2332 7.565 -22.285
ltibia 80.5355
lfoot -2.10828 -5.49655
ltoes -13.4942
245
root -25.7871 16.5006 -7.13904 295.66 -87.7206 -272.071
lowerback 28.9387 -0.397956 1.13116
upperback 5.43265 -0.687244 -0.452684
thorax -9.88876 -0.546741 -0.88253
lowerneck 4.25338 0.441868 2.32267
upperneck -18.5041 0.455676 -0.424621
head -6.29956 -0.0636754 -0.535957
rclavicle 5.96354e-016 6.16232e-015
rhumerus -28.388 4.16878 -89.2702
rradius 38.2804
rwrist -5.98621
rhand -20.6506 -7.43054
rfingers 7.12502
rthumb 5.71167 -37.3336
lclavicle 5.96354e-016 6.16232e-015
lhumerus -31.187 -5.25692 87.0319
lradius 36.2332
lwrist 25.3669
lhand -19.5859 9.66184
lfingers 7.12502
lthumb 6.73954 39.5346
rfemur -60.023 -2.28946 27.3074
rtibia 48.0807
rfoot -12.5818 -10.7703
rtoes 9.58343
lfemur -52.2516 7.56449 -22.3942
ltibia 79.6605
lfoot -1.85368 -5.76813
ltoes -12.7446
246
root -25.7088 16.4966 -7.13152 294.498 -87.7531 -270.911
lowerback 28.831 -0.415199 1.15061
upperback 5.42314 -0.701918 -0.448528
thorax -9.84637 -0.553105 -0.884534
lowerneck 4.22311 0.455517 2.3113
upperneck -18.4398 0.472107 -0.433697
head -6.27356 -0.0528487 -0.537905
rclavicle 2.08724e-014 2.98177e-014
rhumerus -28.4156 4.17464 -89.3123
rradius 38.304
rwrist -5.98596
rhand -20.6443 -7.41704
rfingers 7.12502
rthumb 5.71782 -37.3199
lclavicle 2.08724e-014 2.98177e-014
lhumerus -31.1951 -5.27698 87.0503
lradius 36.2158
lwrist 25.3022
lhand -19.5433 9.67057
lfingers 7.12502
lthumb 6.78067 39.542
rfemur -60.2288 -2.24066 27.2727
rtibia 47.8957
rfoot -12.0972 -10.6627
rtoes 9.40256
lfemur -51.284 7.55985 -22.5134
ltibia 78.7149
lfoot -1.5817 -5.94325
ltoes -11.8403
247
root -25.629 16.4903 -7.12338 293.424 -87.7836 -269.841
lowerback 28.7266 -0.433926 1.16786
upperback 5.41461 -0.719124 -0.443196
thorax -9.80444 -0.560597 -0.883045
lowerneck 4.19703 0.46913 2.29079
upperneck -18.3874 0.489741 -0.42865
head -6.25217 -0.0422117 -0.533921
rclavicle -1.86858e-014 -3.55825e-014
rhumerus -28.4471 4.18351 -89.3536
rradius 38.3421
rwrist -5.99253
rhand -20.6384 -7.40346
rfingers 7.12502
rthumb 5.72352 -37.3062
lclavicle -1.86858e-014 -3.55825e-014
lhumerus -31.2061 -5.28119 87.0647
lradius 36.2176
lwrist 25.2392
lhand -19.54 9.64354
lfingers 7.12502
lthumb 6.78387 39.5149
rfemur -60.4475 -2.1832 27.2339
rtibia 47.7267
rfoot -11.6351 -10.6111
rtoes 9.19088
lfemur -50.3457 7.54888 -22.6408
ltibia 77.7045
lfoot -1.27878 -6.0147
ltoes -10.8192
248
root -25.5477 16.482 -7.11468 292.446 -87.8045 -268.865
lowerback 28.6248 -0.453269 1.1803
upperback 5.40399 -0.738695 -0.440685
thorax -9.76624 -0.569043 -0.88113
lowerneck 4.16029 0.480835 2.27777
upperneck -18.3287 0.505545 -0.421424
head -6.22698 -0.0331174 -0.530326
rclavicle 6.36111e-015 4.37326e-015
rhumerus -28.4875 4.19672 -89.3957
rradius 38.3911
rwrist -6.01063
rhand -20.6418 -7.39385
rfingers 7.12502
rthumb 5.72017 -37.2966
lclavicle 6.36111e-015 4.37326e-015
lhumerus -31.2204 -5.28221 87.076
lradius 36.2323
lwrist 25.1875
lhand -19.6141 9.53325
lfingers 7.12502
lthumb 6.71235 39.4069
rfemur -60.686 -2.12632 27.1884
rtibia 47.5747
rfoot -11.2054 -10.6119
rtoes 8.98292
lfemur -49.4423 7.5248 -22.7837
ltibia 76.6269
lfoot -0.958812 -5.97168
ltoes -9.81392
249
root -25.465 16.4718 -7.10528 291.606 -87.8207 -268.027
lowerback 28.5241 -0.473971 1.19687
upperback 5.39475 -0.759353 -0.442012
thorax -9.72713 -0.578192 -0.885576
lowerneck 4.13285 0.489992 2.26062
upperneck -18.289 0.520039 -0.397652
head -6.20956 -0.02608 -0.520735
rclavicle -4.37326e-015 -5.96354e-015
rhumerus -28.5377 4.20513 -89.4403
rradius 38.4569
rwrist -6.04235
rhand -20.6728 -7.38949
rfingers 7.12502
rthumb 5.69029 -37.2931
lclavicle -4.37326e-015 -5.96354e-015
lhumerus -31.2328 -5.28835 87.0833
lradius 36.2587
lwrist 25.1562
lhand -19.6822 9.43633
lfingers 7.12502
lthumb 6.64661 39.312
rfemur -60.9388 -2.07481 27.1452
rtibia 47.4394
rfoot -10.8023 -10.6736
rtoes 8.74531
lfemur -48.5665 7.48646 -22.9353
ltibia 75.4771
lfoot -0.658812 -5.8055
ltoes -8.91524
250
root -25.3813 16.4601 -7.09535 290.816 -87.8264 -267.242
lowerback 28.4249 -0.492784 1.20938
upperback 5.3854 -0.77926 -0.447345
thorax -9.6888 -0.586931 -0.892489
lowerneck 4.11777 0.49633 2.23876
upperneck -18.2688 0.53233 -0.360893
head -6.20061 -0.0211864 -0.506142
rclavicle -1.35174e-014 -2.48481e-014
rhumerus -28.6023 4.20402 -89.4833
rradius 38.5385
rwrist -6.08654
rhand -20.7156 -7.38724
rfingers 7.12502
rthumb 5.64893 -37.2919
lclavicle -1.35174e-014 -2.48481e-014
lhumerus -31.2439 -5.30284 87.0906
lradius 36.2917
lwrist 25.1446
lhand -19.7455 9.35152
lfingers 7.12502
lthumb 6.58549 39.2291
rfemur -61.2092 -2.02767 27.0952
rtibia 47.3204
rfoot -10.4277 -10.7382
rtoes 8.62894
lfemur -47.7103 7.43462 -23.1006
ltibia 74.2482
lfoot -0.512588 -5.58886
ltoes -8.39244
251
root -25.296 16.4469 -7.08455 290.08 -87.8242 -266.519
lowerback 28.3372 -0.512432 1.22553
upperback 5.37698 -0.799931 -0.458039
thorax -9.6553 -0.596314 -0.907206
lowerneck 4.11345 0.50113 2.21506
upperneck -18.2627 0.543594 -0.317116
head -6.19802 -0.0174597 -0.488992
rclavicle -1.63997e-014 -1.88845e-014
rhumerus -28.6837 4.19974 -89.527
rradius 38.635
rwrist -6.14081
rhand -20.7839 -7.3825
rfingers 7.12502
rthumb 5.58302 -37.289
lclavicle -1.63997e-014 -1.88845e-014
lhumerus -31.2485 -5.32851 87.0958
lradius 36.3248
lwrist 25.1537
lhand -19.8153 9.2813
lfingers 7.12502
lthumb 6.51808 39.161
rfemur -61.4882 -1.99186 27.0441
rtibia 47.2148
rfoot -10.0498 -10.8035
rtoes 8.52347
lfemur -46.8574 7.36686 -23.273
ltibia 72.9387
lfoot -0.614151 -5.37893
ltoes -8.34534
252
root -25.2094 16.4326 -7.07313 289.303 -87.8151 -265.76
lowerback 28.2538 -0.526909 1.24351
upperback 5.36953 -0.814018 -0.47218
thorax -9.62272 -0.602802 -0.929181
lowerneck 4.11991 0.501353 2.19006
upperneck -18.2717 0.548805 -0.271386
head -6.20221 -0.0170271 -0.470655
rclavicle -2.5842e-015 -3.8763e-015
rhumerus -28.7808 4.18238 -89.5647
rradius 38.7452
rwrist -6.20294
rhand -20.8536 -7.37925
rfingers 7.12502
rthumb 5.51568 -37.2875
lclavicle -2.5842e-015 -3.8763e-015
lhumerus -31.243 -5.3717 87.1052
lradius 36.3545
lwrist 25.1726
lhand -19.8865 9.22353
lfingers 7.12502
lthumb 6.44942 39.1053
rfemur -61.7762 -1.95832 26.9894
rtibia 47.1156
rfoot -9.66703 -10.8755
rtoes 8.43087
lfemur -46.0088 7.28792 -23.4477
ltibia 71.5536
lfoot -1.07983 -5.26027
ltoes -8.96154
